<svg xmlns="http://www.w3.org/2000/svg" xml:space="preserve" width="16" height="16"><path fill="#62b543" d="m16 12-6 4V8z"/><path fill="#afb1b3" d="M7 2c-3.314 0-6 .672-6 1.5S3.686 5 7 5s6-.672 6-1.5S10.314 2 7 2zM1 4.6v2.004C1 7.137 3.7 8 7 8c.701 0 1.373-.04 2-.107V6l2.248 1.5C12.33 7.218 13 6.87 13 6.603V4.6C13 5.133 10.3 6 7 6s-6-.867-6-1.4zm0 3v2.004C1 10.136 3.7 11 7 11c.701 0 1.373-.04 2-.107v-2C8.373 8.959 7.701 9 7 9c-3.3 0-6-.867-6-1.4zm12 0c0 .169-.273.37-.748.568l.748.498V7.6zm-12 3v2.004C1 13.136 3.7 14 7 14c.701 0 1.373-.04 2-.107v-2c-.627.066-1.299.107-2 .107-3.3 0-6-.867-6-1.4z"/></svg>