<svg xmlns="http://www.w3.org/2000/svg" width="16" height="16" fill="none"><g fill="#6c707e"><path d="M1.488 9.777c.01-.384-.118-.692-.383-.922S.033 8.96.033 8.51V7.43c0-.45.807-.115 1.072-.345s.393-.537.383-.922l-.03-1.583c-.01-.52.097-.975.322-1.365.23-.39.558-.69.983-.9S3.688 2 4.263 2H5v1.005h-.73c-.52 0-.932.145-1.237.435-.3.285-.448.672-.443 1.163l.03 1.567c.01.51-.127.927-.412 1.252-.285.32-.67.498-1.155.533.485.09.87.3 1.155.63.285.325.422.72.412 1.185l-.03 1.778c-.01.44.123.79.398 1.05.28.264.657.397 1.132.397H5V14h-.887c-.535 0-1.005-.1-1.41-.3-.4-.195-.71-.477-.93-.848-.215-.365-.32-.792-.315-1.282zM14.514 9.775c-.01-.385.117-.693.383-.922s1.072.105 1.072-.345v-1.08c0-.45-.807-.115-1.073-.345s-.392-.538-.382-.923l.03-1.583c.01-.52-.1-.974-.33-1.364-.225-.39-.55-.69-.975-.9s-.925-.317-1.5-.315L11 2v1.003h.731c.52 0 .93.145 1.23.435.305.285.455.672.45 1.162l-.03 1.568c-.01.51.128.927.413 1.252.285.32.67.497 1.155.532-.485.09-.87.3-1.155.63-.285.325-.423.72-.413 1.185l.03 1.778c.01.44-.125.79-.405 1.05-.275.265-.65.398-1.125.398H11v1.005h.89c.535 0 1.002-.1 1.402-.3.405-.195.715-.478.93-.848.22-.365.328-.792.323-1.282z"/><circle cx="11" cy="10.5" r="1"/><circle cx="5" cy="10.5" r="1"/><circle cx="8" cy="10.5" r="1"/></g></svg>